<svg version="1.1" xmlns:serif="http://www.serif.com/" xmlns="http://www.w3.org/2000/svg" xmlns:xlink="http://www.w3.org/1999/xlink" x="0px" y="0px" viewBox="0 0 95.8 99.8" xml:space="preserve">
<path fill-rule="evenodd" clip-rule="evenodd" fill="#BF011C" d="M95.8,99.8H0V0h95.8V99.8z"/>
<path fill="#FFFFFF" d="M69.7,25.1h8.6V12.4H50.5v36.1h27.9V32.7h-14V37h5.8v4.5H58V20.7h11.6C69.6,20.7,69.7,24.9,69.7,25.1"/>
<path fill="#FFFFFF" d="M58,58.2l20.4,0.1v-8.2H50.5v36.4H58V72.2h11.6v-7.5H57.9L58,58.2z"/>
<path fill="#FFFFFF" d="M40.1,64.5V46.8l-9.5,17.6C30.6,64.4,40,64.5,40.1,64.5 M49.2,86.5h-9V72.2H26.3l-6.9,14.2H9l40.2-74.2C49.2,12.2,49.2,86.5,49.2,86.5"/>
</svg>