<?xml version="1.0" encoding="utf-8"?>
<!-- Generator: Adobe Illustrator 26.0.2, SVG Export Plug-In . SVG Version: 6.00 Build 0)  -->
<svg version="1.1" id="Layer_1" xmlns="http://www.w3.org/2000/svg" xmlns:xlink="http://www.w3.org/1999/xlink" x="0px" y="0px"
	 viewBox="0 0 448 91.8" style="enable-background:new 0 0 448 91.8;" xml:space="preserve">
<style type="text/css">
	.st0{fill:#D3147C;}
	.st1{fill:#128881;}
	.st2{fill:none;}
	.st3{fill:#FFFFFF;}
</style>
<rect x="34.5" y="69.1" class="st0" width="110.8" height="18.6"/>
<rect x="175.5" y="69.1" class="st1" width="242.2" height="18.6"/>
<g id="Group_25" transform="translate(41.242 233.576)">
	<path id="Path_79" class="st2" d="M50.4-208.9c2.6-0.3,5.1-1.3,7.2-2.9c1.3-1,2.4-2.1,3.4-3.5c0.3-0.4,0.7-0.9,1-1.4
		c0.6-0.8,0.9-1.8,0.9-2.7c0.1-0.7-0.3-1.5-0.9-1.8c-0.8-0.4-1.7-0.7-2.6-0.7c-0.5,0-1.1-0.1-1.8-0.1h-4.9L43-208.8h4.2
		C48.2-208.7,49.3-208.8,50.4-208.9z"/>
	<path id="Path_80" class="st2" d="M75.8-199.4l-12,11.6h7L75.8-199.4z"/>
	<path id="Path_81" class="st2" d="M267.6-218.6L246-197.7h12.6L267.6-218.6z"/>
	<path id="Path_82" class="st2" d="M313.7-195.1c0.5-0.1,1.2-0.2,1.6-0.3c0.3-0.1,0.7-0.1,1-0.2c1.4-0.5,2.7-1.4,3.6-2.6
		c0.3-0.4,0.5-0.8,0.7-1.2c0.3-0.7,0.2-1-0.1-1.4c-0.2-0.2-0.6-0.5-1.9-0.6c-0.4,0-0.8-0.1-1.3-0.1h-4.6l-4.7,6.4h4.4
		C312.9-194.9,313.3-195,313.7-195.1z"/>
	<path id="Path_83" class="st3" d="M-41.2-165.6v23.8h448v-23.8H-41.2z M9.7-146.3H4.5v-6.5h-5v6.5h-5.2v-16.8h5.2v5.8h5.1v-5.8h5.2
		L9.7-146.3L9.7-146.3z M27-146.3H12.2v-16.8h14.7v4.3h-9.5v2.1h8.1v3.9h-8.1v2.2H27V-146.3z M40.8-146.3l-0.8-2.5h-5.5l-0.8,2.5
		h-5.4l6.3-16.8h5.3l6.3,16.8H40.8z M59.4-158.8h-4.9v12.5h-5.2v-12.5h-4.9v-4.3h15C59.4-163.1,59.4-158.8,59.4-158.8z M66-146.3
		h-5.2v-16.8H66V-146.3z M84-146.3h-5.1l-5.3-8.9v8.9h-5.1v-16.8h5.1l5.3,9.2v-9.2H84V-146.3z M102.9-146.3h-3.7l-0.2-1.5
		c-1.3,1.4-3.1,2.1-5,2c-3.2,0-8.3-2-8.3-8.8c-0.2-3,1.2-5.8,3.7-7.5c1.5-1,3.2-1.5,5-1.5c4.7,0,7.9,3.1,8.3,6.5h-5.2
		c-0.2-1.3-1.4-2.3-2.8-2.2c-1.8,0-3.5,1.3-3.5,4.8c0,3.3,1.7,4.7,3.8,4.7c1.3,0,2.5-0.7,3-1.9h-2.4v-3.6h7.2L102.9-146.3z
		 M119.7-150.8c-1.8,0-3.3-1.5-3.3-3.3s1.5-3.3,3.3-3.3s3.3,1.5,3.3,3.3S121.5-150.8,119.7-150.8L119.7-150.8z M148-146.3l-0.8-2.5
		h-5.5l-0.8,2.5h-5.4l6.3-16.8h5.3l6.3,16.8H148z M159.8-146.3h-5.2v-16.8h5.2V-146.3z M172.8-146.3c-0.2-0.3-0.3-0.4-0.3-2.1
		c0.1-0.9-0.1-1.9-0.5-2.7c-0.5-0.8-1.4-1.2-2.3-1.1h-2v6h-5.2V-163h10.2c2.7-0.1,5,1.9,5.1,4.6c0,0.1,0,0.2,0,0.3
		c0,1.8-1.1,3.5-2.7,4.3c1.5,0.5,2.6,1.7,2.6,4.4c0,0.4,0,0.9,0,1.3c-0.1,0.7,0.1,1.4,0.5,1.9L172.8-146.3z M199.7-145.8
		c-5.4,0-8.9-3.6-8.9-8.7c0-6.5,4.7-9.1,8.9-9.1c4.8,0,7.8,3.1,8.1,6.8h-5.1c-0.1-1.5-1.3-2.6-2.8-2.6c-1.8,0-3.5,1.3-3.5,4.7
		s1.7,4.7,3.4,4.7c1.5,0.1,2.7-1,2.8-2.5h5.2C207.4-148.7,204.5-145.8,199.7-145.8L199.7-145.8z M217.9-145.8
		c-5.4,0-8.9-3.5-8.9-8.9s3.5-8.9,9.1-8.9c5.5,0,9,3.5,9,9C227-149.4,223.5-145.8,217.9-145.8L217.9-145.8z M244.3-146.3h-5.1
		l-5.3-8.9v8.9h-5.1v-16.8h5.1l5.3,9.2v-9.2h5.1V-146.3z M254.7-146.3h-7.9v-16.8h8.4c4.8,0,8.2,3.2,8.2,8.4
		C263.3-150.4,261.1-146.3,254.7-146.3L254.7-146.3z M270.7-146.3h-5.2v-16.8h5.2V-146.3z M287-158.8h-4.9v12.5h-5.2v-12.5H272v-4.3
		h15V-158.8z M293.6-146.3h-5.2v-16.8h5.2V-146.3z M304.3-145.8c-5.4,0-8.9-3.5-8.9-8.9s3.5-8.9,9.1-8.9c5.5,0,9,3.5,9,9
		C313.4-149.4,309.9-145.8,304.3-145.8L304.3-145.8z M330.7-146.3h-5.1l-5.3-8.9v8.9h-5.1v-16.8h5.1l5.3,9.2v-9.2h5.1V-146.3z
		 M338.4-146.3h-5.2v-16.8h5.2V-146.3z M356.5-146.3h-5.1l-5.3-8.9v8.9H341v-16.8h5.1l5.3,9.2v-9.2h5.1V-146.3z M375.4-146.3h-3.7
		l-0.2-1.5c-1.3,1.4-3.1,2.1-5,2c-3.2,0-8.3-2-8.3-8.8c-0.2-3,1.2-5.8,3.7-7.5c1.5-1,3.2-1.5,5-1.5c4.7,0,7.9,3.1,8.3,6.5H370
		c-0.2-1.3-1.4-2.3-2.8-2.2c-1.8,0-3.5,1.3-3.5,4.8c0,3.3,1.7,4.7,3.8,4.7c1.3,0,2.5-0.7,3-1.9H368v-3.6h7.2L375.4-146.3z"/>
	<path id="Path_84" class="st0" d="M81.2-213.9h156.5l23.8-19.6L232.4-220L82-214.6L81.2-213.9z"/>
	<path id="Path_85" class="st3" d="M148.9-150.5L148.9-150.5L148.9-150.5L148.9-150.5z"/>
	<path id="Path_86" class="st3" d="M41.8-150.5L41.8-150.5L41.8-150.5L41.8-150.5z"/>
	<path id="Path_87" class="st3" d="M217.9-159.7c-2.1,0-3.8,1.5-3.8,4.7c0,3.9,1.8,5.2,3.8,5.2s3.8-1.4,3.8-4.9
		C221.7-158.3,220-159.7,217.9-159.7z"/>
	<path id="Path_88" class="st3" d="M304.3-159.7c-2.1,0-3.8,1.5-3.8,4.7c0,3.9,1.8,5.2,3.8,5.2s3.8-1.4,3.8-4.9
		C308.1-158.3,306.4-159.7,304.3-159.7z"/>
	<path id="Path_89" class="st3" d="M254.1-159H252v8.6h2.2c2.2,0,3.8-1.5,3.8-4.2C258-157.4,256.3-159,254.1-159z"/>
	<path id="Path_90" class="st3" d="M172.8-157.6c0-0.9-0.8-1.7-1.8-1.6h-0.1h-3.3v3.6h3.2c1.1,0,1.9-0.8,2-1.8
		C172.8-157.5,172.8-157.6,172.8-157.6z"/>
	<path id="Path_91" class="st3" d="M35.7-152.3h3.1l-0.7-2.1c-0.4-1.3-0.6-2.1-0.8-3.1c-0.2,1-0.4,1.9-0.7,2.8L35.7-152.3z"/>
	<path id="Path_92" class="st3" d="M142.9-152.4h3.1l-0.7-2.1c-0.4-1.3-0.6-2.1-0.8-3.1c-0.2,1-0.4,1.9-0.7,2.8L142.9-152.4z"/>
	<path id="Path_93" class="st3" d="M76-175.6l11.6-32.2H76.7L41-175.6h10.1l5.4-5.2h11.3l-2.2,5.2H76z M63.8-187.9l12-11.6l-5,11.6
		H63.8z"/>
	<path id="Path_94" class="st3" d="M199.2-196.4l10.4-2c0.3-0.8,0.6-1.5,0.8-2.3c0.5-1.4,0.5-2.9,0-4.3c-0.3-0.8-0.9-1.5-1.6-2
		c-1.2-0.7-2.7-1.1-4.1-1.2c-0.8-0.1-1.6-0.1-2.5-0.1c-3.5,0-6.9,0.6-10.1,1.9c-1.7,0.7-3.4,1.5-5,2.4c-3.4,1.9-6.4,4.4-9,7.2
		c-1.5,1.6-2.9,3.2-4.2,4.9c-1.1,1.4-2,2.9-2.9,4.4c-1.1,1.7-1.8,3.6-2.1,5.6c-0.1,0.7-0.1,1.4,0,2c0.1,0.9,0.4,1.8,1,2.6
		c0.8,1,1.9,1.6,3.2,1.8c0.7,0.2,1.4,0.3,2.1,0.4c1,0.1,2,0.1,3,0.1c2.7,0,5.5-0.4,8.1-1.3c1.7-0.6,3.3-1.3,4.8-2.1
		c0.9-0.5,1.7-1,2.6-1.5c1.7-1.1,3.3-2.4,4.9-3.8c0.8-0.7,1.6-1.5,2.4-2.3l-6.6-2.7c-0.7,0.7-1.4,1.5-2.1,2.1
		c-1.1,1-2.3,1.9-3.6,2.7c-1.1,0.7-2.4,1.2-3.7,1.5c-1.2,0.3-2.4,0.2-3.6-0.1c-0.8-0.2-1.4-0.9-1.5-1.8c0-0.7,0.1-1.4,0.5-2
		c0.3-0.7,0.7-1.5,1.1-2.2c0.6-0.9,1.4-2.1,2.2-3.2s1.6-2.1,2.4-3c0.6-0.7,1.3-1.4,2-2.1c0.6-0.6,1.2-1.1,1.9-1.5
		c0.8-0.6,1.6-1.1,2.5-1.5c1.4-0.7,2.9-1.1,4.5-1.1c0.6,0,1.2,0.1,1.8,0.3c0.8,0.4,1.3,1.2,1.2,2.1c0,0.4-0.1,0.7-0.2,1.1
		C199.5-197.2,199.3-196.8,199.2-196.4z"/>
	<path id="Path_95" class="st3" d="M82.5-177.3c0.8,1,1.9,1.6,3.2,1.8c0.7,0.2,1.4,0.3,2.1,0.4c1,0.1,2,0.1,3,0.1
		c2.7,0,5.5-0.4,8.1-1.3c1.7-0.6,3.3-1.3,4.8-2.1c0.9-0.5,1.7-1,2.6-1.5c1.7-1.1,3.3-2.4,4.9-3.8c0.8-0.7,1.6-1.5,2.4-2.3l-6.6-2.7
		c-0.7,0.7-1.4,1.5-2.1,2.1c-1.1,1-2.3,1.9-3.6,2.7c-1.1,0.7-2.4,1.2-3.7,1.5c-1.2,0.3-2.4,0.2-3.6-0.1c-0.8-0.2-1.4-0.9-1.5-1.8
		c0-0.7,0.1-1.4,0.5-2c0.3-0.7,0.7-1.5,1.1-2.2c0.6-0.9,1.4-2.1,2.2-3.2s1.6-2.1,2.4-3c0.6-0.7,1.3-1.4,2-2.1
		c0.6-0.6,1.2-1.1,1.9-1.5c0.8-0.6,1.6-1.1,2.5-1.5c1.4-0.7,2.9-1.1,4.5-1.1c0.6,0,1.2,0.1,1.8,0.3c0.8,0.4,1.3,1.2,1.2,2.1
		c0,0.4-0.1,0.7-0.2,1.1c-0.1,0.3-0.3,0.7-0.4,1.1l10.4-2c0.3-0.8,0.6-1.5,0.8-2.3c0.5-1.4,0.5-2.9,0-4.3c-0.3-0.8-0.9-1.5-1.6-2
		c-1.2-0.7-2.7-1.1-4.1-1.2c-0.8-0.1-1.6-0.1-2.5-0.1c-3.5,0-6.9,0.6-10.1,1.9c-1.7,0.7-3.4,1.5-5,2.4c-3.4,1.9-6.4,4.4-9,7.2
		c-1.5,1.6-2.9,3.2-4.2,4.9c-1.1,1.4-2,2.9-2.9,4.4c-1.1,1.7-1.8,3.6-2.1,5.6c-0.1,0.7-0.1,1.4,0,2C81.6-179,81.9-178.1,82.5-177.3z
		"/>
	<path id="Path_96" class="st3" d="M281-175.6l23.7-32.2h-9.8l-23.7,32.2H281z"/>
	<path id="Path_97" class="st3" d="M182.1-207.8h-9.8l-23.7,32.2h9.8L182.1-207.8z"/>
	<path id="Path_98" class="st3" d="M141.8-207.8H132l-23.7,32.2h9.8L141.8-207.8z"/>
	<path id="Path_99" class="st3" d="M34.4-197.1h9.7c2.4,0,4.7-0.2,7.1-0.6c6.6-1.1,12.8-3.9,18-8c1.8-1.4,3.5-2.9,5.1-4.5
		c1.6-1.7,3.1-3.4,4.5-5.3c1.1-1.4,2.1-2.9,3-4.5c1.1-1.7,1.8-3.6,2.2-5.6c0.4-1.5,0.2-3-0.5-4.4c-0.7-1.3-1.9-2.3-4.6-3
		c-0.8-0.2-1.7-0.4-2.5-0.4c-1.1-0.1-2.3-0.2-3.4-0.2H43.5l-42.6,58h17.7L34.4-197.1z M52.7-222h4.9c0.6,0,1.2,0,1.8,0.1
		c0.9,0,1.8,0.2,2.6,0.7c0.7,0.3,1,1.1,0.9,1.8c0,1-0.4,1.9-0.9,2.7c-0.3,0.5-0.6,0.9-1,1.4c-0.9,1.3-2.1,2.5-3.4,3.5
		c-2.1,1.6-4.6,2.5-7.2,2.9c-1.1,0.1-2.1,0.2-3.2,0.2H43L52.7-222z"/>
	<path id="Path_100" class="st3" d="M293.9-175.6l9.7-13.2c0.7-0.1,1.4,0,2.1,0.2c0.7,0.3,1,0.8,0.8,1.9c0,0.4-0.1,0.8-0.2,1.1
		l-1.8,9.9h11.2l1.7-9.3c0.1-0.4,0.1-0.8,0.1-1.2c0-0.6,0-1.2,0-1.8c-0.1-0.7-0.2-0.9-0.3-1.1c-0.2-0.2-0.4-0.4-0.7-0.6
		c-0.2-0.1-0.5-0.3-0.9-0.5c0.6-0.1,1.3-0.3,1.9-0.4s1.1-0.3,1.5-0.4s0.8-0.3,1.4-0.5s1.2-0.5,1.8-0.8c2.6-1.3,4.9-3,6.8-5.1
		c0.5-0.6,1-1.2,1.4-1.8c0.5-0.7,0.9-1.4,1.3-2.1c0.5-0.9,0.9-1.9,0.9-3c0.1-0.9-0.3-1.9-1-2.5c-0.2-0.2-0.5-0.4-0.8-0.5
		c-1.1-0.4-2.2-0.6-3.4-0.6c-0.9-0.1-2-0.1-3.1-0.1h-16.7L284-175.6H293.9z M312.8-201.4h4.6c0.5,0,0.9,0,1.3,0.1
		c1.3,0.1,1.7,0.3,1.9,0.6c0.3,0.3,0.3,0.7,0.1,1.4c-0.2,0.4-0.4,0.8-0.7,1.2c-0.9,1.2-2.2,2.1-3.6,2.6c-0.3,0.1-0.7,0.2-1,0.2
		c-0.5,0.1-1.2,0.2-1.6,0.3s-0.8,0.1-1.2,0.1H308L312.8-201.4z"/>
	<path id="Path_101" class="st3" d="M141.3-188.8h12.3l4.8-6.4H146l4.3-5.8h14.4l4.9-6.7h-24.2l-23.7,32.2h9.8L141.3-188.8z"/>
	<path id="Path_102" class="st3" d="M223.2-175.6l9.7-9.4h20.3l-3.9,9.4H268l20.9-58h-19.7l-64.2,58H223.2z M267.6-218.6l-9,20.9
		H246L267.6-218.6z"/>
</g>
</svg>
