<?xml version="1.0" encoding="utf-8"?>
<!-- Generator: Adobe Illustrator 21.1.0, SVG Export Plug-In . SVG Version: 6.00 Build 0)  -->
<svg version="1.1" id="Logo" xmlns="http://www.w3.org/2000/svg" xmlns:xlink="http://www.w3.org/1999/xlink" x="0px" y="0px"
	 viewBox="0 0 348 80" style="enable-background:new 0 0 348 80;" xml:space="preserve">
<style type="text/css">
	.st0{fill:#6D6E71;}
	.st1{fill:#1C75BC;}
</style>
<g>
	<path class="st0" d="M19.4,36.2c0,0-2.4,26.6,21.6,26.6s21.9-26.6,21.9-26.6h12.2v9.6h-4.7c0,0-0.8,6.1-5,12.3l3.3,3.6l-7,7
		L58.6,65c0,0-3.1,3.3-12.6,5.3l0,4.6h-9.5v-4.6c0,0-8.7-2.3-12.8-5.3l-3.4,3.6l-7.2-7.2l3.6-3.4c0,0-3.8-6.5-5.5-12.2H6.9v-9.6
		H19.4z"/>
	<path class="st0" d="M6.2,34.3c-0.8,3.7-0.8,9.2,0,13l-3.6,0c-0.7-3.9-0.7-9.4,0-13H6.2z"/>
	<path class="st0" d="M76,34.3c0.8,3.7,0.8,9.2,0,13l3.6,0c0.7-3.9,0.7-9.4,0-13H76z"/>
	<path class="st0" d="M47.7,75.6c-3.7,0.8-9.2,0.8-13,0l0,3.6c3.9,0.7,9.4,0.7,13,0V75.6z"/>
	<path class="st0" d="M70.3,61.2c-2,3.2-6,7-9.2,9.2l2.6,2.6c3.2-2.3,7.1-6.2,9.2-9.2L70.3,61.2z"/>
	<path class="st0" d="M20.8,70.2c-3.2-2-7-6-9.2-9.2L9,63.6c2.3,3.2,6.2,7.1,9.2,9.2L20.8,70.2z"/>
	<path class="st1" d="M39.5,42.6c-0.3-0.3-0.5-0.5-1-0.4c-4.4,0.6-8.1-2.5-8.7-6.8c-0.1-0.7-0.1-1.3,0-2c0-0.3,0.1-0.6,0.2-0.9
		c0-0.1,0.4-0.7,0.4-0.8c0.3,0.4,0.4,0.7,0.6,1c0.9,1.2,1.9,2.3,2.8,3.5c0.3,0.3,0.5,0.5,1,0.4c1.1-0.2,2.3-0.3,3.4-0.6
		c0.2,0,0.5-0.3,0.6-0.5c0.5-1.1,0.9-2.2,1.3-3.3c0.1-0.2,0-0.6-0.1-0.8c-1.1-1.5-2.3-2.9-3.5-4.4c1.3-0.3,2.5-0.1,3.7,0.3
		c4,1.3,6.1,5.6,4.9,9.6c-0.1,0.5-0.1,0.8,0.2,1.1c3.8,4.7,7.7,9.5,11.5,14.2c0.6-0.9,1.1-1.8,1.5-2.9c1.5-3.8,1.2-8.1,0.3-12.1
		c-3-13.3-12-24.4-17.4-36.9c0,0,0,0,0,0c-4.2,8-8.4,16-12.5,24c-1.9,3.7-3.9,7.5-5,11.5c-0.5,2-0.8,4-0.8,6.1
		c0,8.1,4.6,14.3,13.3,17.4c5.1,1.5,10.8,0.7,15.3-2C47.3,52.3,43.4,47.5,39.5,42.6z"/>
</g>
<g>
	<rect x="87.3" y="38.6" class="st0" width="257.9" height="5.4"/>
	<g>
		<path class="st1" d="M99.9,11.6v3.9c0,4.8-2.1,7.4-6.3,7.4h-2V34h-4.3V4.3h6.3C97.8,4.3,99.9,6.9,99.9,11.6z M91.5,8.5v10.1h2
			c1.4,0,2.1-0.7,2.1-2.8v-4.5c0-2.1-0.7-2.8-2.1-2.8H91.5z"/>
		<path class="st1" d="M106.1,16.8h5.8v4.3h-5.8v8.7h7.3V34h-11.6V4.3h11.6v4.3h-7.3V16.8z"/>
		<path class="st1" d="M124.9,34c-0.2-0.8-0.4-1.2-0.4-3.7v-4.7c0-2.8-0.9-3.8-2.8-3.8h-1.5V34H116V4.3h6.4c4.4,0,6.3,2.3,6.3,6.8
			v2.3c0,3.1-0.9,5-2.8,6v0.1c2.1,1,2.8,3.2,2.8,6.3v4.6c0,1.4,0,2.5,0.5,3.6H124.9z M120.3,8.5v9.1h1.7c1.6,0,2.5-0.8,2.5-3.1v-2.9
			c0-2.1-0.7-3.1-2.2-3.1H120.3z"/>
		<path class="st1" d="M140.5,34c-0.2-0.8-0.4-1.2-0.4-3.7v-4.7c0-2.8-0.9-3.8-2.8-3.8h-1.5V34h-4.3V4.3h6.4c4.4,0,6.3,2.3,6.3,6.8
			v2.3c0,3.1-0.9,5-2.8,6v0.1c2.1,1,2.8,3.2,2.8,6.3v4.6c0,1.4,0,2.5,0.5,3.6H140.5z M135.8,8.5v9.1h1.7c1.6,0,2.5-0.8,2.5-3.1v-2.9
			c0-2.1-0.7-3.1-2.2-3.1H135.8z"/>
		<path class="st1" d="M146.8,11.4c0-4.8,2.3-7.5,6.5-7.5c4.2,0,6.5,2.7,6.5,7.5v15.5c0,4.8-2.3,7.5-6.5,7.5c-4.2,0-6.5-2.7-6.5-7.5
			V11.4z M151,27.2c0,2.1,0.9,2.9,2.2,2.9c1.4,0,2.2-0.8,2.2-2.9V11.1c0-2.1-0.9-2.9-2.2-2.9c-1.4,0-2.2,0.8-2.2,2.9V27.2z"/>
		<path class="st1" d="M161.2,4.3h13.1v4.3h-4.4V34h-4.3V8.5h-4.4V4.3z"/>
		<path class="st1" d="M175,4.3h13.1v4.3h-4.4V34h-4.3V8.5H175V4.3z"/>
		<path class="st1" d="M202.2,34h-4.3l-0.7-5.4H192l-0.7,5.4h-3.9l4.3-29.8h6.2L202.2,34z M192.5,24.6h4.1l-2-15.1h-0.1L192.5,24.6z
			"/>
		<path class="st1" d="M201.9,8.8V4.3h4.1v4l-1.9,4.7h-1.7l1.1-4.3H201.9z"/>
		<path class="st1" d="M214.6,3.9c4.1,0,6.3,2.7,6.3,7.5v0.9h-4v-1.2c0-2.1-0.8-2.9-2.1-2.9s-2.1,0.8-2.1,2.9c0,2.2,0.9,3.8,3.6,6.5
			c3.6,3.4,4.7,5.9,4.7,9.3c0,4.8-2.2,7.5-6.3,7.5c-4.2,0-6.3-2.7-6.3-7.5v-1.8h4v2.1c0,2.1,0.9,2.9,2.2,2.9s2.2-0.8,2.2-2.9
			c0-2.2-0.9-3.8-3.6-6.5c-3.6-3.4-4.7-5.9-4.7-9.3C208.3,6.6,210.5,3.9,214.6,3.9z"/>
		<path class="st0" d="M241.9,11.6v3.9c0,4.8-2.1,7.4-6.3,7.4h-2V34h-4.3V4.3h6.3C239.8,4.3,241.9,6.9,241.9,11.6z M233.6,8.5v10.1
			h2c1.4,0,2.1-0.7,2.1-2.8v-4.5c0-2.1-0.7-2.8-2.1-2.8H233.6z"/>
		<path class="st0" d="M243.9,4.3h4.3v25.5h7V34h-11.2V4.3z"/>
		<path class="st0" d="M261.1,4.3v23c0,2.1,0.9,2.9,2.2,2.9c1.4,0,2.2-0.8,2.2-2.9v-23h4v22.7c0,4.8-2.2,7.5-6.3,7.5
			c-4.2,0-6.3-2.7-6.3-7.5V4.3H261.1z"/>
		<path class="st0" d="M281.4,25.4L281.4,25.4l2.9-21.1h5.9V34h-4V12.7h-0.1L283.2,34h-4l-3.1-21h-0.1v21h-3.7V4.3h5.9L281.4,25.4z"
			/>
		<path class="st0" d="M306,11.1v1.1c0,3.1-0.9,5-2.7,6v0.1c2.3,1,3.2,3.2,3.2,6.3V27c0,4.6-2.2,7.1-6.5,7.1h-6.7V4.3h6.4
			C304.1,4.3,306,6.5,306,11.1z M297.5,8.5v7.9h1.7c1.6,0,2.5-0.8,2.5-3.1v-1.7c0-2.1-0.7-3.1-2.2-3.1H297.5z M297.5,20.6v9.1h2.4
			c1.4,0,2.2-0.7,2.2-2.9v-2.6c0-2.8-0.8-3.6-2.7-3.6H297.5z"/>
		<path class="st0" d="M309,4.3h4.3V34H309V4.3z"/>
		<path class="st0" d="M320.2,12.5L320.2,12.5L320.1,34h-3.8V4.3h5.3l4.3,17.8h0.1V4.3h3.8V34h-4.4L320.2,12.5z"/>
		<path class="st0" d="M339.2,17.5h6v9.4c0,4.8-2.2,7.5-6.3,7.5c-4.2,0-6.3-2.7-6.3-7.5V11.4c0-4.8,2.2-7.5,6.3-7.5
			c4.2,0,6.3,2.7,6.3,7.5v2.9h-4v-3.2c0-2.1-0.9-2.9-2.2-2.9c-1.4,0-2.2,0.8-2.2,2.9v16.1c0,2.1,0.9,2.9,2.2,2.9
			c1.4,0,2.2-0.8,2.2-2.9v-5.5h-1.9V17.5z"/>
	</g>
	<g>
		<path class="st1" d="M91.6,63.6c-0.1-0.4-0.2-0.6-0.2-1.8v-2.3c0-1.4-0.4-1.9-1.4-1.9h-0.7v5.9h-2.1V49h3.1c2.2,0,3.1,1.1,3.1,3.4
			v1.1c0,1.5-0.4,2.5-1.4,2.9v0c1,0.5,1.4,1.6,1.4,3.1v2.3c0,0.7,0,1.2,0.2,1.8H91.6z M89.3,51.1v4.5h0.8c0.8,0,1.3-0.4,1.3-1.5
			v-1.4c0-1-0.3-1.5-1.1-1.5H89.3z"/>
		<path class="st1" d="M97,55.1h2.9v2.1H97v4.3h3.6v2.1h-5.7V49h5.7v2.1H97V55.1z"/>
		<path class="st1" d="M104.7,48.8c2,0,3.1,1.3,3.1,3.7V53h-2v-0.6c0-1-0.4-1.4-1-1.4c-0.7,0-1,0.4-1,1.4c0,1.1,0.4,1.9,1.8,3.2
			c1.7,1.7,2.3,2.9,2.3,4.6c0,2.3-1.1,3.7-3.1,3.7s-3.1-1.3-3.1-3.7v-0.9h2v1c0,1,0.4,1.4,1.1,1.4c0.7,0,1.1-0.4,1.1-1.4
			c0-1.1-0.4-1.9-1.8-3.2c-1.7-1.7-2.3-2.9-2.3-4.6C101.6,50.2,102.6,48.8,104.7,48.8z"/>
		<path class="st1" d="M108.9,49h2.1v14.6h-2.1V49z"/>
		<path class="st1" d="M112.5,49h3.3c2.1,0,3.1,1.3,3.1,3.6V60c0,2.3-1,3.6-3.1,3.6h-3.3V49z M114.6,51.1v10.4h1.2
			c0.7,0,1.1-0.4,1.1-1.4v-7.6c0-1-0.4-1.4-1.1-1.4H114.6z"/>
		<path class="st1" d="M122.4,55.1h2.9v2.1h-2.9v4.3h3.6v2.1h-5.7V49h5.7v2.1h-3.6V55.1z"/>
		<path class="st1" d="M129.1,53L129.1,53l0,10.6h-1.9V49h2.6l2.1,8.7h0V49h1.9v14.6h-2.1L129.1,53z"/>
		<path class="st1" d="M134.7,49h6.4v2.1H139v12.5h-2.1V51.1h-2.2V49z"/>
		<path class="st1" d="M142.1,49h2.1v14.6h-2.1V49z"/>
		<path class="st1" d="M152.4,63.6h-2.1l-0.4-2.6h-2.6l-0.4,2.6h-1.9l2.1-14.6h3.1L152.4,63.6z M147.7,59h2l-1-7.4h0L147.7,59z"/>
		<path class="st1" d="M153.4,49h2.1v12.5h3.4v2.1h-5.5V49z"/>
		<path class="st1" d="M163.2,52.8h7.7v8.4h-7.7V52.8z"/>
		<path class="st1" d="M181.8,58.1v1.9c0,2.3-1.1,3.7-3.1,3.7c-2,0-3.1-1.3-3.1-3.7v-7.6c0-2.3,1.1-3.7,3.1-3.7c2,0,3.1,1.3,3.1,3.7
			v1.4h-2v-1.6c0-1-0.4-1.4-1.1-1.4c-0.7,0-1.1,0.4-1.1,1.4v7.9c0,1,0.4,1.4,1.1,1.4c0.7,0,1.1-0.4,1.1-1.4v-2.1H181.8z"/>
		<path class="st1" d="M182.9,52.5c0-2.3,1.1-3.7,3.2-3.7c2,0,3.2,1.3,3.2,3.7v7.6c0,2.3-1.1,3.7-3.2,3.7c-2,0-3.2-1.3-3.2-3.7V52.5
			z M185,60.2c0,1,0.4,1.4,1.1,1.4c0.7,0,1.1-0.4,1.1-1.4v-7.9c0-1-0.4-1.4-1.1-1.4c-0.7,0-1.1,0.4-1.1,1.4V60.2z"/>
		<path class="st1" d="M195,59.4L195,59.4l1.4-10.4h2.9v14.6h-2V53.1h0l-1.4,10.5h-2l-1.5-10.3h0v10.3h-1.8V49h2.9L195,59.4z"/>
		<path class="st1" d="M205.2,59.4L205.2,59.4l1.4-10.4h2.9v14.6h-2V53.1h0l-1.4,10.5h-2l-1.5-10.3h0v10.3h-1.8V49h2.9L205.2,59.4z"
			/>
		<path class="st1" d="M213.1,55.1h2.9v2.1h-2.9v4.3h3.6v2.1h-5.7V49h5.7v2.1h-3.6V55.1z"/>
		<path class="st1" d="M222.4,63.6c-0.1-0.4-0.2-0.6-0.2-1.8v-2.3c0-1.4-0.4-1.9-1.4-1.9h-0.7v5.9H218V49h3.1c2.2,0,3.1,1.1,3.1,3.4
			v1.1c0,1.5-0.4,2.5-1.4,2.9v0c1,0.5,1.4,1.6,1.4,3.1v2.3c0,0.7,0,1.2,0.2,1.8H222.4z M220.1,51.1v4.5h0.8c0.8,0,1.3-0.4,1.3-1.5
			v-1.4c0-1-0.3-1.5-1.1-1.5H220.1z"/>
		<path class="st1" d="M231.7,58.1v1.9c0,2.3-1.1,3.7-3.1,3.7c-2,0-3.1-1.3-3.1-3.7v-7.6c0-2.3,1.1-3.7,3.1-3.7c2,0,3.1,1.3,3.1,3.7
			v1.4h-2v-1.6c0-1-0.4-1.4-1.1-1.4c-0.7,0-1.1,0.4-1.1,1.4v7.9c0,1,0.4,1.4,1.1,1.4c0.7,0,1.1-0.4,1.1-1.4v-2.1H231.7z"/>
		<path class="st1" d="M233,49h2.1v14.6H233V49z"/>
		<path class="st1" d="M243.3,63.6h-2.1l-0.4-2.6h-2.6l-0.4,2.6H236l2.1-14.6h3.1L243.3,63.6z M238.6,59h2l-1-7.4h0L238.6,59z"/>
		<path class="st1" d="M244.3,49h2.1v12.5h3.4v2.1h-5.5V49z"/>
		<path class="st1" d="M254.1,52.8h7.7v8.4h-7.7V52.8z"/>
		<path class="st1" d="M269.7,50.9c-0.7,0-1.1,0.4-1.1,1.4v1.6h-2v-1.4c0-2.3,1.1-3.7,3.1-3.7s3.1,1.3,3.1,3.7
			c0,1.9-0.6,3.5-2.6,5.8c-1.2,1.5-1.6,2.1-1.6,2.9c0,0.1,0,0.2,0,0.3h3.9v2.1h-6v-1.8c0-1.6,0.5-2.9,2.1-4.6c1.6-1.9,2-3,2-4.6
			C270.8,51.3,270.3,50.9,269.7,50.9z"/>
		<path class="st1" d="M273.6,58.9l3.8-9.9h2.3v9.9h1v2.1h-1v2.6h-2.1v-2.6h-4V58.9z M277.6,58.9v-5.4h0l-2,5.4H277.6z"/>
		<path class="st1" d="M286.2,49h1.8l-5.2,14.6H281L286.2,49z"/>
		<path class="st1" d="M295,49v2l-3.1,12.6h-2.1l3.1-12.5h-4.2V49H295z"/>
		<path class="st1" d="M302.1,48.8c2,0,3.1,1.3,3.1,3.7V53h-2v-0.6c0-1-0.4-1.4-1-1.4c-0.7,0-1,0.4-1,1.4c0,1.1,0.4,1.9,1.8,3.2
			c1.7,1.7,2.3,2.9,2.3,4.6c0,2.3-1.1,3.7-3.1,3.7s-3.1-1.3-3.1-3.7v-0.9h2v1c0,1,0.4,1.4,1.1,1.4s1.1-0.4,1.1-1.4
			c0-1.1-0.4-1.9-1.8-3.2c-1.7-1.7-2.3-2.9-2.3-4.6C299,50.2,300.1,48.8,302.1,48.8z"/>
		<path class="st1" d="M308.5,55.1h2.9v2.1h-2.9v4.3h3.6v2.1h-5.7V49h5.7v2.1h-3.6V55.1z"/>
		<path class="st1" d="M317.7,63.6c-0.1-0.4-0.2-0.6-0.2-1.8v-2.3c0-1.4-0.4-1.9-1.4-1.9h-0.7v5.9h-2.1V49h3.1
			c2.2,0,3.1,1.1,3.1,3.4v1.1c0,1.5-0.4,2.5-1.4,2.9v0c1,0.5,1.4,1.6,1.4,3.1v2.3c0,0.7,0,1.2,0.2,1.8H317.7z M315.4,51.1v4.5h0.8
			c0.8,0,1.3-0.4,1.3-1.5v-1.4c0-1-0.3-1.5-1.1-1.5H315.4z"/>
		<path class="st1" d="M324.1,60.9L324.1,60.9l1.6-11.9h1.9l-2,14.6h-3.1l-2-14.6h2.1L324.1,60.9z"/>
		<path class="st1" d="M328.6,49h2.1v14.6h-2.1V49z"/>
		<path class="st1" d="M338.2,58.1v1.9c0,2.3-1.1,3.7-3.1,3.7s-3.1-1.3-3.1-3.7v-7.6c0-2.3,1.1-3.7,3.1-3.7s3.1,1.3,3.1,3.7v1.4h-2
			v-1.6c0-1-0.4-1.4-1.1-1.4c-0.7,0-1.1,0.4-1.1,1.4v7.9c0,1,0.4,1.4,1.1,1.4c0.7,0,1.1-0.4,1.1-1.4v-2.1H338.2z"/>
		<path class="st1" d="M341.6,55.1h2.9v2.1h-2.9v4.3h3.6v2.1h-5.7V49h5.7v2.1h-3.6V55.1z"/>
	</g>
</g>
</svg>
